<svg width="331" height="45" viewBox="0 0 331 45" fill="none" xmlns="http://www.w3.org/2000/svg">
<path d="M7.14832 31.1091C5.93753 31.1091 4.87421 30.8763 3.95836 30.4106C3.0425 29.9294 2.33621 29.2619 1.83947 28.4081C1.34274 27.5544 1.09437 26.5687 1.09437 25.451V20.0723C1.09437 18.9546 1.34274 17.9689 1.83947 17.1152C2.33621 16.2614 3.0425 15.6017 3.95836 15.136C4.87421 14.6703 5.93753 14.4375 7.14832 14.4375C8.34359 14.4375 9.39139 14.6625 10.2917 15.1127C11.2076 15.5474 11.9139 16.176 12.4106 16.9988C12.9229 17.8059 13.179 18.7451 13.179 19.8162C13.179 19.9559 13.0859 20.0413 12.8996 20.0723L10.1753 20.2353H10.1287C9.9735 20.2353 9.89589 20.1499 9.89589 19.9792C9.89589 19.1564 9.63976 18.4967 9.1275 18C8.63077 17.5033 7.97104 17.2549 7.14832 17.2549C6.31008 17.2549 5.63484 17.5033 5.12258 18C4.62584 18.4967 4.37748 19.1564 4.37748 19.9792V25.5907C4.37748 26.3979 4.62584 27.0499 5.12258 27.5466C5.63484 28.0433 6.31008 28.2917 7.14832 28.2917C7.97104 28.2917 8.63077 28.0433 9.1275 27.5466C9.63976 27.0499 9.89589 26.3979 9.89589 25.5907C9.89589 25.42 9.98903 25.3346 10.1753 25.3346L12.8996 25.451C12.9772 25.451 13.0393 25.4743 13.0859 25.5209C13.1479 25.5674 13.179 25.6218 13.179 25.6839C13.179 26.7549 12.9229 27.7018 12.4106 28.5246C11.9139 29.3473 11.2076 29.9837 10.2917 30.4339C9.39139 30.884 8.34359 31.1091 7.14832 31.1091ZM21.3844 31.179C20.1736 31.179 19.1025 30.9306 18.1711 30.4339C17.2553 29.9371 16.5412 29.2464 16.029 28.3616C15.5167 27.4612 15.2606 26.429 15.2606 25.2647V20.2819C15.2606 19.1332 15.5167 18.1164 16.029 17.2316C16.5412 16.3468 17.2553 15.6638 18.1711 15.1826C19.1025 14.6858 20.1736 14.4375 21.3844 14.4375C22.6107 14.4375 23.6818 14.6858 24.5976 15.1826C25.529 15.6638 26.2508 16.3468 26.7631 17.2316C27.2754 18.1164 27.5315 19.1332 27.5315 20.2819V25.2647C27.5315 26.429 27.2754 27.4612 26.7631 28.3616C26.2508 29.2619 25.529 29.9604 24.5976 30.4572C23.6818 30.9384 22.6107 31.179 21.3844 31.179ZM21.3844 28.3616C22.2382 28.3616 22.9289 28.0899 23.4567 27.5466C23.9845 27.0033 24.2484 26.2815 24.2484 25.3812V20.2586C24.2484 19.3582 23.9845 18.6364 23.4567 18.0931C22.9445 17.5343 22.2537 17.2549 21.3844 17.2549C20.5306 17.2549 19.8399 17.5343 19.3121 18.0931C18.7998 18.6364 18.5437 19.3582 18.5437 20.2586V25.3812C18.5437 26.2815 18.7998 27.0033 19.3121 27.5466C19.8399 28.0899 20.5306 28.3616 21.3844 28.3616ZM34.0382 30.9229C33.883 30.9229 33.7821 30.8452 33.7355 30.69L28.9389 14.9497L28.9156 14.8566C28.9156 14.7014 29.001 14.6237 29.1718 14.6237H32.1056C32.2764 14.6237 32.385 14.7014 32.4316 14.8566L35.5284 26.2194C35.5439 26.266 35.5672 26.2892 35.5983 26.2892C35.6293 26.2892 35.6526 26.266 35.6681 26.2194L38.7184 14.8566C38.765 14.7014 38.8736 14.6237 39.0444 14.6237H41.9084C42.0015 14.6237 42.0714 14.6548 42.1179 14.7169C42.1645 14.779 42.1723 14.8566 42.1412 14.9497L37.2748 30.69C37.2282 30.8452 37.1273 30.9229 36.9721 30.9229H34.0382ZM44.4713 30.9229C44.3937 30.9229 44.3238 30.8996 44.2617 30.853C44.2152 30.7909 44.1919 30.7211 44.1919 30.6434V14.9032C44.1919 14.8255 44.2152 14.7634 44.2617 14.7169C44.3238 14.6548 44.3937 14.6237 44.4713 14.6237H47.1956C47.2732 14.6237 47.3353 14.6548 47.3818 14.7169C47.4439 14.7634 47.475 14.8255 47.475 14.9032V30.6434C47.475 30.7211 47.4439 30.7909 47.3818 30.853C47.3353 30.8996 47.2732 30.9229 47.1956 30.9229H44.4713ZM50.588 30.9229C50.5104 30.9229 50.4405 30.8996 50.3784 30.853C50.3319 30.7909 50.3086 30.7211 50.3086 30.6434V14.9032C50.3086 14.8255 50.3319 14.7634 50.3784 14.7169C50.4405 14.6548 50.5104 14.6237 50.588 14.6237H56.4091C57.5733 14.6237 58.5901 14.8333 59.4594 15.2524C60.3442 15.656 61.0272 16.2304 61.5084 16.9755C61.9896 17.7206 62.2302 18.5821 62.2302 19.56V25.9865C62.2302 26.9645 61.9896 27.826 61.5084 28.5711C61.0272 29.3162 60.3442 29.8983 59.4594 30.3175C58.5901 30.7211 57.5733 30.9229 56.4091 30.9229H50.588ZM53.5917 27.989C53.5917 28.0666 53.6305 28.1054 53.7081 28.1054H56.5255C57.2396 28.1054 57.8139 27.8648 58.2486 27.3836C58.6987 26.9024 58.9316 26.2582 58.9471 25.451V20.0956C58.9471 19.2884 58.722 18.6442 58.2719 18.163C57.8372 17.6818 57.2473 17.4412 56.5022 17.4412H53.7081C53.6305 17.4412 53.5917 17.48 53.5917 17.5576V27.989ZM64.2365 25.451C64.1589 25.451 64.089 25.4277 64.0269 25.3812C63.9804 25.3191 63.9571 25.2492 63.9571 25.1716V22.913C63.9571 22.8354 63.9804 22.7733 64.0269 22.7267C64.089 22.6646 64.1589 22.6336 64.2365 22.6336H71.8505C71.9281 22.6336 71.9902 22.6646 72.0368 22.7267C72.0989 22.7733 72.1299 22.8354 72.1299 22.913V25.1716C72.1299 25.2492 72.0989 25.3191 72.0368 25.3812C71.9902 25.4277 71.9281 25.451 71.8505 25.451H64.2365ZM76.302 14.6936C76.3796 14.647 76.4961 14.6237 76.6513 14.6237H79.4687C79.5463 14.6237 79.6084 14.6548 79.655 14.7169C79.7171 14.7634 79.7481 14.8255 79.7481 14.9032V30.6434C79.7481 30.7211 79.7171 30.7909 79.655 30.853C79.6084 30.8996 79.5463 30.9229 79.4687 30.9229H76.7444C76.6668 30.9229 76.597 30.8996 76.5349 30.853C76.4883 30.7909 76.465 30.7211 76.465 30.6434V17.8836C76.465 17.8525 76.4495 17.8215 76.4185 17.7904C76.3874 17.7594 76.3564 17.7516 76.3253 17.7671L74.0202 18.3958L73.927 18.4191C73.7873 18.4191 73.7175 18.3337 73.7175 18.163L73.6476 16.1605C73.6476 16.0053 73.7175 15.8966 73.8572 15.8345L76.302 14.6936ZM92.0078 17.5809C92.2716 18.2173 92.4036 18.9779 92.4036 19.8627V26.8714C92.4036 27.7096 92.1863 28.4547 91.7516 29.1067C91.317 29.7431 90.7038 30.2398 89.9122 30.5969C89.1205 30.9384 88.2124 31.1091 87.1879 31.1091C86.1789 31.1091 85.2863 30.9384 84.5102 30.5969C83.734 30.2398 83.1286 29.7509 82.694 29.1299C82.2593 28.4935 82.042 27.7639 82.042 26.9412V26.2892C82.042 26.2116 82.0653 26.1495 82.1119 26.103C82.174 26.0409 82.2438 26.0098 82.3214 26.0098H85.0457C85.1233 26.0098 85.1854 26.0409 85.232 26.103C85.2941 26.1495 85.3251 26.2116 85.3251 26.2892V26.4988C85.3251 27.0111 85.4959 27.4379 85.8374 27.7795C86.1944 28.121 86.6446 28.2917 87.1879 28.2917C87.7622 28.2917 88.2279 28.121 88.5849 27.7795C88.942 27.4224 89.1205 26.9723 89.1205 26.429V24.2635C89.1205 24.2169 89.105 24.1859 89.0739 24.1704C89.0429 24.1548 89.0118 24.1626 88.9808 24.1936C88.3443 24.737 87.5061 25.0086 86.4661 25.0086C85.5347 25.0086 84.6964 24.799 83.9513 24.3799C83.2218 23.9453 82.6474 23.3244 82.2283 22.5172C81.8402 21.7876 81.6462 20.895 81.6462 19.8395C81.6462 18.9236 81.8014 18.1164 82.1119 17.4179C82.4999 16.502 83.1209 15.7802 83.9746 15.2524C84.8439 14.7246 85.8607 14.4608 87.0249 14.4608C88.2046 14.4608 89.2291 14.7402 90.0984 15.299C90.9832 15.8423 91.6197 16.6029 92.0078 17.5809ZM87.0249 22.261C87.8321 22.261 88.4142 21.9428 88.7712 21.3064C89.0041 20.9028 89.1205 20.3828 89.1205 19.7463C89.1205 19.2341 89.0196 18.7606 88.8178 18.326C88.4763 17.643 87.8864 17.3015 87.0482 17.3015C86.241 17.3015 85.6511 17.643 85.2785 18.326C85.0457 18.7606 84.9293 19.2496 84.9293 19.7929C84.9293 20.3828 85.0612 20.895 85.3251 21.3297C85.7132 21.9506 86.2798 22.261 87.0249 22.261Z" fill="white"/>
<path d="M151.214 31.1091C150.158 31.1091 149.227 30.9073 148.419 30.5037C147.628 30.1001 147.015 29.5335 146.58 28.804C146.145 28.0588 145.928 27.2051 145.928 26.2427V24.473C145.928 24.3178 146.006 24.2402 146.161 24.2402H147.348C147.504 24.2402 147.581 24.3178 147.581 24.473V26.2427C147.581 27.2672 147.907 28.0977 148.559 28.7341C149.227 29.355 150.111 29.6655 151.214 29.6655C152.3 29.6655 153.177 29.355 153.845 28.7341C154.512 28.0977 154.846 27.2672 154.846 26.2427V14.8565C154.846 14.7013 154.924 14.6237 155.079 14.6237H156.266C156.422 14.6237 156.499 14.7013 156.499 14.8565V26.2427C156.499 27.2051 156.274 28.0588 155.824 28.804C155.389 29.5335 154.768 30.1001 153.961 30.5037C153.169 30.9073 152.254 31.1091 151.214 31.1091ZM166.236 31.1091C165.149 31.1091 164.186 30.8918 163.348 30.4572C162.51 30.0225 161.858 29.4171 161.392 28.641C160.927 27.8493 160.694 26.9334 160.694 25.8934V14.8565C160.694 14.7013 160.771 14.6237 160.927 14.6237H162.114C162.269 14.6237 162.347 14.7013 162.347 14.8565V25.94C162.347 27.0421 162.704 27.9424 163.418 28.641C164.132 29.324 165.071 29.6655 166.236 29.6655C167.4 29.6655 168.339 29.324 169.053 28.641C169.767 27.9424 170.124 27.0421 170.124 25.94V14.8565C170.124 14.7013 170.202 14.6237 170.357 14.6237H171.544C171.7 14.6237 171.777 14.7013 171.777 14.8565V25.8934C171.777 26.9334 171.544 27.8493 171.079 28.641C170.629 29.4171 169.984 30.0225 169.146 30.4572C168.308 30.8918 167.338 31.1091 166.236 31.1091ZM180.682 31.1091C178.928 31.1091 177.539 30.7133 176.514 29.9216C175.505 29.1299 175.001 28.0744 175.001 26.7549V26.0331C175.001 25.8779 175.078 25.8002 175.234 25.8002H176.375C176.53 25.8002 176.607 25.8779 176.607 26.0331V26.6618C176.607 27.5621 176.98 28.2917 177.725 28.8505C178.47 29.3938 179.502 29.6655 180.822 29.6655C182.017 29.6655 182.925 29.4171 183.546 28.9204C184.167 28.4081 184.478 27.7329 184.478 26.8946C184.478 26.3513 184.33 25.8856 184.035 25.4975C183.756 25.1095 183.313 24.7447 182.708 24.4032C182.118 24.0617 181.28 23.6658 180.193 23.2157C179.029 22.75 178.121 22.3464 177.469 22.0049C176.832 21.6478 176.312 21.1977 175.909 20.6544C175.521 20.0955 175.327 19.397 175.327 18.5587C175.327 17.2548 175.777 16.2458 176.677 15.5318C177.593 14.8022 178.843 14.4374 180.426 14.4374C182.149 14.4374 183.507 14.841 184.501 15.6482C185.494 16.4554 185.991 17.5265 185.991 18.8614V19.3737C185.991 19.5289 185.913 19.6066 185.758 19.6066H184.594C184.439 19.6066 184.361 19.5289 184.361 19.3737V18.9546C184.361 18.0542 184.004 17.3169 183.29 16.7425C182.591 16.1682 181.614 15.881 180.356 15.881C179.254 15.881 178.408 16.1061 177.818 16.5563C177.228 17.0064 176.933 17.6584 176.933 18.5122C176.933 19.071 177.073 19.5367 177.352 19.9093C177.647 20.2663 178.059 20.5845 178.587 20.8639C179.13 21.1278 179.96 21.4771 181.078 21.9117C182.211 22.3774 183.119 22.8121 183.802 23.2157C184.501 23.6193 185.06 24.116 185.479 24.7059C185.913 25.2802 186.131 25.9865 186.131 26.8248C186.131 28.1287 185.65 29.1687 184.687 29.9449C183.725 30.7211 182.39 31.1091 180.682 31.1091ZM198.902 14.6237C199.058 14.6237 199.135 14.7013 199.135 14.8565V15.8577C199.135 16.013 199.058 16.0906 198.902 16.0906H194.339C194.276 16.0906 194.245 16.1216 194.245 16.1837V30.69C194.245 30.8452 194.168 30.9229 194.013 30.9229H192.825C192.67 30.9229 192.592 30.8452 192.592 30.69V16.1837C192.592 16.1216 192.561 16.0906 192.499 16.0906H188.122C187.966 16.0906 187.889 16.013 187.889 15.8577V14.8565C187.889 14.7013 187.966 14.6237 188.122 14.6237H198.902ZM211.954 31.1091C210.867 31.1091 209.913 30.8996 209.09 30.4804C208.267 30.0458 207.623 29.4404 207.157 28.6642C206.707 27.8881 206.482 26.9955 206.482 25.9865V19.56C206.482 18.551 206.707 17.6584 207.157 16.8823C207.623 16.1061 208.267 15.5085 209.09 15.0893C209.913 14.6547 210.867 14.4374 211.954 14.4374C213.025 14.4374 213.972 14.6469 214.795 15.0661C215.633 15.4852 216.277 16.0751 216.727 16.8357C217.178 17.5808 217.403 18.4268 217.403 19.3737V19.6764C217.403 19.8316 217.325 19.9093 217.17 19.9093H215.982C215.827 19.9093 215.749 19.8316 215.749 19.6764V19.397C215.749 18.3569 215.4 17.5109 214.702 16.859C214.019 16.207 213.103 15.881 211.954 15.881C210.805 15.881 209.882 16.2148 209.183 16.8823C208.485 17.5497 208.135 18.4268 208.135 19.5134V26.0331C208.135 27.1197 208.492 27.9968 209.206 28.6642C209.921 29.3317 210.86 29.6655 212.024 29.6655C213.157 29.6655 214.057 29.355 214.725 28.7341C215.408 28.1132 215.749 27.2827 215.749 26.2427V24.1238C215.749 24.0617 215.718 24.0306 215.656 24.0306H212.233C212.078 24.0306 212.001 23.953 212.001 23.7978V22.8198C212.001 22.6646 212.078 22.587 212.233 22.587H217.17C217.325 22.587 217.403 22.6646 217.403 22.8198V25.8235C217.403 27.4845 216.906 28.7807 215.912 29.7121C214.934 30.6434 213.615 31.1091 211.954 31.1091ZM226.304 31.1091C225.202 31.1091 224.232 30.884 223.393 30.4339C222.555 29.9837 221.903 29.355 221.437 28.5478C220.987 27.7251 220.762 26.7782 220.762 25.7071V19.8394C220.762 18.7683 220.987 17.8292 221.437 17.022C221.903 16.1992 222.555 15.5628 223.393 15.1126C224.232 14.6625 225.202 14.4374 226.304 14.4374C227.406 14.4374 228.376 14.6625 229.214 15.1126C230.068 15.5628 230.72 16.1992 231.17 17.022C231.636 17.8292 231.869 18.7683 231.869 19.8394V25.7071C231.869 26.7782 231.636 27.7251 231.17 28.5478C230.72 29.355 230.068 29.9837 229.214 30.4339C228.376 30.884 227.406 31.1091 226.304 31.1091ZM226.304 29.6888C227.484 29.6888 228.431 29.3317 229.145 28.6177C229.859 27.9036 230.216 26.9567 230.216 25.777V19.8161C230.216 18.6364 229.859 17.6895 229.145 16.9754C228.431 16.2458 227.484 15.881 226.304 15.881C225.14 15.881 224.201 16.2458 223.486 16.9754C222.772 17.6895 222.415 18.6364 222.415 19.8161V25.777C222.415 26.9567 222.772 27.9036 223.486 28.6177C224.201 29.3317 225.14 29.6888 226.304 29.6888ZM240.789 31.1091C239.686 31.1091 238.716 30.884 237.878 30.4339C237.04 29.9837 236.388 29.355 235.922 28.5478C235.472 27.7251 235.247 26.7782 235.247 25.7071V19.8394C235.247 18.7683 235.472 17.8292 235.922 17.022C236.388 16.1992 237.04 15.5628 237.878 15.1126C238.716 14.6625 239.686 14.4374 240.789 14.4374C241.891 14.4374 242.861 14.6625 243.699 15.1126C244.553 15.5628 245.205 16.1992 245.655 17.022C246.121 17.8292 246.354 18.7683 246.354 19.8394V25.7071C246.354 26.7782 246.121 27.7251 245.655 28.5478C245.205 29.355 244.553 29.9837 243.699 30.4339C242.861 30.884 241.891 31.1091 240.789 31.1091ZM240.789 29.6888C241.968 29.6888 242.915 29.3317 243.629 28.6177C244.343 27.9036 244.7 26.9567 244.7 25.777V19.8161C244.7 18.6364 244.343 17.6895 243.629 16.9754C242.915 16.2458 241.968 15.881 240.789 15.881C239.624 15.881 238.685 16.2458 237.971 16.9754C237.257 17.6895 236.9 18.6364 236.9 19.8161V25.777C236.9 26.9567 237.257 27.9036 237.971 28.6177C238.685 29.3317 239.624 29.6888 240.789 29.6888ZM250.477 30.9229C250.321 30.9229 250.244 30.8452 250.244 30.69V14.8565C250.244 14.7013 250.321 14.6237 250.477 14.6237H255.972C257.508 14.6237 258.727 15.0273 259.627 15.8345C260.543 16.6417 261.001 17.736 261.001 19.1176V26.4289C261.001 27.8105 260.543 28.9049 259.627 29.7121C258.727 30.5193 257.508 30.9229 255.972 30.9229H250.477ZM251.897 29.3861C251.897 29.4482 251.928 29.4792 251.99 29.4792H256.042C257.051 29.4792 257.85 29.1843 258.44 28.5944C259.045 28.0045 259.348 27.2128 259.348 26.2194V19.3504C259.348 18.3414 259.053 17.542 258.463 16.9521C257.873 16.3622 257.066 16.0673 256.042 16.0673H251.99C251.928 16.0673 251.897 16.0983 251.897 16.1604V29.3861ZM279.009 14.8565C279.009 14.7013 279.086 14.6237 279.241 14.6237H280.429C280.584 14.6237 280.662 14.7013 280.662 14.8565V30.69C280.662 30.8452 280.584 30.9229 280.429 30.9229H279.265C279.156 30.9229 279.063 30.8685 278.985 30.7599L271.045 17.8369C271.03 17.7904 271.006 17.7748 270.975 17.7904C270.944 17.7904 270.929 17.8136 270.929 17.8602L270.952 30.69C270.952 30.8452 270.874 30.9229 270.719 30.9229H269.532C269.376 30.9229 269.299 30.8452 269.299 30.69V14.8565C269.299 14.7013 269.376 14.6237 269.532 14.6237H270.696C270.805 14.6237 270.898 14.678 270.975 14.7866L278.915 27.7096C278.931 27.7562 278.954 27.7794 278.985 27.7794C279.016 27.7639 279.032 27.7329 279.032 27.6863L279.009 14.8565ZM295.264 15.8345C295.264 15.9897 295.186 16.0673 295.031 16.0673H286.462C286.4 16.0673 286.369 16.0983 286.369 16.1604V21.9117C286.369 21.9738 286.4 22.0049 286.462 22.0049H292.47C292.625 22.0049 292.702 22.0825 292.702 22.2377V23.2157C292.702 23.3709 292.625 23.4485 292.47 23.4485H286.462C286.4 23.4485 286.369 23.4796 286.369 23.5416V29.3861C286.369 29.4482 286.4 29.4792 286.462 29.4792H295.031C295.186 29.4792 295.264 29.5568 295.264 29.7121V30.69C295.264 30.8452 295.186 30.9229 295.031 30.9229H284.949C284.793 30.9229 284.716 30.8452 284.716 30.69V14.8565C284.716 14.7013 284.793 14.6237 284.949 14.6237H295.031C295.186 14.6237 295.264 14.7013 295.264 14.8565V15.8345ZM302.322 30.9229C302.198 30.9229 302.113 30.8608 302.066 30.7366L297.595 14.8798L297.572 14.8099C297.572 14.6857 297.65 14.6237 297.805 14.6237H299.039C299.179 14.6237 299.264 14.6857 299.295 14.8099L302.834 27.5699C302.85 27.6009 302.865 27.6164 302.881 27.6164C302.912 27.6164 302.935 27.6009 302.951 27.5699L306.234 14.8332C306.265 14.6935 306.35 14.6237 306.49 14.6237H307.747C307.887 14.6237 307.973 14.6935 308.004 14.8332L311.426 27.5699C311.442 27.6009 311.457 27.6164 311.473 27.6164C311.504 27.6164 311.527 27.6009 311.543 27.5699L315.082 14.8099C315.113 14.6857 315.199 14.6237 315.338 14.6237H316.526C316.603 14.6237 316.658 14.6469 316.689 14.6935C316.735 14.7401 316.751 14.8022 316.735 14.8798L312.335 30.7366C312.304 30.8608 312.218 30.9229 312.078 30.9229H310.844C310.705 30.9229 310.619 30.853 310.588 30.7133L307.189 17.6739C307.173 17.6429 307.15 17.6274 307.119 17.6274C307.103 17.6274 307.088 17.6429 307.072 17.6739L303.743 30.7133C303.727 30.853 303.642 30.9229 303.486 30.9229H302.322ZM324.073 31.1091C322.319 31.1091 320.93 30.7133 319.905 29.9216C318.896 29.1299 318.392 28.0744 318.392 26.7549V26.0331C318.392 25.8779 318.469 25.8002 318.625 25.8002H319.766C319.921 25.8002 319.998 25.8779 319.998 26.0331V26.6618C319.998 27.5621 320.371 28.2917 321.116 28.8505C321.861 29.3938 322.893 29.6655 324.213 29.6655C325.408 29.6655 326.316 29.4171 326.937 28.9204C327.558 28.4081 327.869 27.7329 327.869 26.8946C327.869 26.3513 327.721 25.8856 327.426 25.4975C327.147 25.1095 326.704 24.7447 326.099 24.4032C325.509 24.0617 324.671 23.6658 323.584 23.2157C322.42 22.75 321.512 22.3464 320.86 22.0049C320.224 21.6478 319.704 21.1977 319.3 20.6544C318.912 20.0955 318.718 19.397 318.718 18.5587C318.718 17.2548 319.168 16.2458 320.068 15.5318C320.984 14.8022 322.234 14.4374 323.817 14.4374C325.54 14.4374 326.898 14.841 327.892 15.6482C328.885 16.4554 329.382 17.5265 329.382 18.8614V19.3737C329.382 19.5289 329.305 19.6066 329.149 19.6066H327.985C327.83 19.6066 327.752 19.5289 327.752 19.3737V18.9546C327.752 18.0542 327.395 17.3169 326.681 16.7425C325.983 16.1682 325.005 15.881 323.747 15.881C322.645 15.881 321.799 16.1061 321.209 16.5563C320.619 17.0064 320.324 17.6584 320.324 18.5122C320.324 19.071 320.464 19.5367 320.744 19.9093C321.038 20.2663 321.45 20.5845 321.978 20.8639C322.521 21.1278 323.351 21.4771 324.469 21.9117C325.602 22.3774 326.51 22.8121 327.193 23.2157C327.892 23.6193 328.451 24.116 328.87 24.7059C329.305 25.2802 329.522 25.9865 329.522 26.8248C329.522 28.1287 329.041 29.1687 328.078 29.9449C327.116 30.7211 325.781 31.1091 324.073 31.1091Z" fill="white"/>
<g clip-path="url(#clip0)">
<path fill-rule="evenodd" clip-rule="evenodd" d="M123.778 34.8318C123.329 34.8318 122.883 34.5333 122.739 34.1025C122.613 33.7151 122.718 33.307 122.981 33.0312C123.036 32.9745 123.059 32.8913 123.032 32.8176L122.968 32.6193L122.494 31.1851C122.463 31.0963 122.382 31.0415 122.291 31.0415C122.274 31.0415 122.256 31.0434 122.239 31.0472C121.679 31.1927 121.118 31.2834 120.561 31.325C120.336 31.3401 120.113 31.3495 119.89 31.3495C119.682 31.3495 119.476 31.342 119.272 31.3287C119.27 31.3287 119.266 31.3287 119.264 31.3287C119.215 31.3287 119.172 31.3646 119.166 31.4157L119.155 31.5234C119.149 31.5574 119.164 31.5895 119.191 31.6122C119.382 31.7747 119.491 32.026 119.459 32.2943C119.412 32.6911 119.076 32.982 118.686 32.982C118.628 32.982 118.569 32.9745 118.509 32.9612C118.155 32.88 117.9 32.5512 117.908 32.1903C117.914 31.8861 118.087 31.6367 118.333 31.5101C118.363 31.495 118.384 31.4667 118.388 31.4327L118.401 31.325C118.407 31.2721 118.371 31.2248 118.32 31.2154C117.643 31.1001 116.984 30.9112 116.355 30.6542C116.307 30.6334 116.256 30.624 116.207 30.624C116.068 30.624 115.931 30.7014 115.865 30.8356L115.217 32.1242C115.155 32.2451 115.166 32.3868 115.236 32.504C115.416 32.8063 115.444 33.1918 115.274 33.5281C115.085 33.9022 114.709 34.1176 114.32 34.1176C114.144 34.1176 113.966 34.0741 113.8 33.9816C113.33 33.7208 113.126 33.1294 113.337 32.6344C113.496 32.2584 113.84 32.026 114.212 31.9882C114.346 31.9749 114.467 31.8994 114.528 31.7784L115.176 30.4879C115.266 30.3084 115.204 30.0911 115.032 29.9872C114.205 29.4865 113.451 28.8554 112.808 28.1147L112.772 28.1412C112.746 28.1639 112.733 28.1979 112.738 28.2338C112.772 28.4964 112.672 28.7704 112.449 28.948C112.306 29.0595 112.136 29.1143 111.967 29.1143C111.71 29.1143 111.455 28.9877 111.304 28.7439C111.119 28.4473 111.161 28.0524 111.402 27.7992C111.559 27.6367 111.763 27.5592 111.965 27.5592C112.034 27.5592 112.102 27.5668 112.168 27.5857C112.177 27.5876 112.187 27.5895 112.196 27.5895C112.217 27.5895 112.238 27.5819 112.255 27.5687C112.296 27.5366 112.304 27.478 112.273 27.4364C111.854 26.8507 111.497 26.2083 111.215 25.5167C111.179 25.4317 111.1 25.3788 111.013 25.3788C110.991 25.3788 110.968 25.3826 110.947 25.3901C110.552 25.5205 109.662 25.8152 109.328 25.9248C109.252 25.9513 109.197 26.0174 109.184 26.0968C109.118 26.4728 108.855 26.7997 108.468 26.9282C108.357 26.9641 108.245 26.9829 108.134 26.9829C107.669 26.9829 107.238 26.6769 107.106 26.2007C106.958 25.6773 107.282 25.0727 107.799 24.9007C107.909 24.8648 108.022 24.8478 108.134 24.8478C108.408 24.8478 108.67 24.9555 108.867 25.1407C108.91 25.1823 108.965 25.2049 109.022 25.2049C109.043 25.2049 109.065 25.2012 109.088 25.1936L110.698 24.6608C110.807 24.6249 110.868 24.5096 110.839 24.3981C110.562 23.3665 110.469 22.3254 110.541 21.3107L110.452 21.3013C110.312 21.5148 110.07 21.6527 109.802 21.6527C109.772 21.6527 109.742 21.6508 109.711 21.6471C109.256 21.5942 108.937 21.1558 109.044 20.6948C109.126 20.3509 109.437 20.0996 109.791 20.0958C109.795 20.0958 109.796 20.0958 109.798 20.0958C110.102 20.0958 110.356 20.264 110.486 20.5058C110.495 20.5209 110.509 20.5304 110.526 20.5323L110.577 20.5379C110.581 20.5398 110.582 20.5398 110.584 20.5398C110.609 20.5398 110.632 20.5209 110.635 20.4945C110.752 19.7689 110.955 19.0604 111.234 18.3858C111.289 18.2555 111.232 18.1043 111.104 18.0401L109.672 17.3202C109.632 17.2994 109.59 17.2899 109.547 17.2899C109.496 17.2899 109.447 17.305 109.403 17.3334C109.226 17.4543 109.016 17.5186 108.803 17.5186C108.64 17.5186 108.478 17.4827 108.325 17.4052C107.784 17.1331 107.574 16.4661 107.871 15.9333C108.064 15.5875 108.432 15.3853 108.81 15.3853C108.948 15.3853 109.088 15.4118 109.218 15.4685C109.617 15.6366 109.853 16.0108 109.87 16.4075C109.874 16.5039 109.932 16.587 110.017 16.6305L111.446 17.3485C111.486 17.3693 111.527 17.3787 111.569 17.3787C111.661 17.3787 111.752 17.3296 111.801 17.2446C112.315 16.366 112.971 15.5686 113.751 14.8922L113.713 14.8468C113.66 14.8563 113.607 14.862 113.555 14.862C113.324 14.862 113.097 14.7618 112.944 14.5672C112.659 14.2063 112.744 13.6735 113.145 13.4222C113.269 13.3447 113.411 13.3069 113.553 13.3069C113.755 13.3069 113.957 13.3844 114.104 13.5337C114.31 13.7415 114.375 14.0268 114.307 14.2819C114.299 14.3159 114.305 14.3499 114.324 14.3745L114.354 14.4123C114.898 14.0136 115.493 13.6678 116.134 13.3901C116.368 13.2861 116.485 13.0197 116.404 12.7741L116.017 11.5988C115.964 11.442 115.837 11.3211 115.678 11.2757C115.312 11.168 115.009 10.8695 114.928 10.4538C114.836 9.98522 115.077 9.49962 115.508 9.29178C115.658 9.21998 115.812 9.18597 115.964 9.18408C115.971 9.18408 115.979 9.18408 115.986 9.18408C116.434 9.18408 116.852 9.4675 116.999 9.9172C117.114 10.263 117.041 10.6258 116.835 10.8959C116.735 11.0282 116.706 11.2002 116.757 11.357L117.145 12.5247C117.213 12.7325 117.407 12.8686 117.617 12.8686C117.655 12.8686 117.694 12.8648 117.732 12.8553C118.452 12.6834 119.178 12.6003 119.894 12.6003C120.122 12.6003 120.351 12.6097 120.578 12.6267L120.583 12.5776C120.345 12.4208 120.2 12.1392 120.236 11.8369C120.272 11.5403 120.468 11.3041 120.727 11.202C120.82 11.1624 120.922 11.1416 121.025 11.1416C121.095 11.1416 121.165 11.151 121.237 11.1699C121.57 11.2625 121.806 11.5743 121.804 11.92C121.804 12.2318 121.624 12.4907 121.371 12.6173L121.36 12.7174C122.033 12.8251 122.69 13.0046 123.319 13.2521C123.38 13.2767 123.442 13.288 123.503 13.288C123.69 13.288 123.867 13.1841 123.956 13.0084L124.451 12.0202C124.555 11.8161 124.555 11.5762 124.461 11.3683C124.332 11.0849 124.328 10.7486 124.479 10.45C124.597 10.2138 124.789 10.0419 125.014 9.94743C125.15 9.88697 125.299 9.85485 125.451 9.85485C125.641 9.85485 125.836 9.90586 126.014 10.0155C126.443 10.2819 126.628 10.8298 126.446 11.3003C126.337 11.5875 126.121 11.7953 125.866 11.903C125.813 11.9276 125.757 11.9465 125.7 11.9616C125.452 12.0259 125.245 12.1865 125.129 12.4151L124.661 13.3466C124.54 13.5866 124.621 13.8794 124.85 14.023C125.628 14.5067 126.339 15.1076 126.951 15.8086C126.975 15.8369 127.009 15.8502 127.043 15.8502C127.07 15.8502 127.096 15.8426 127.119 15.8256L127.142 15.8067C127.176 15.7802 127.191 15.7406 127.187 15.6971C127.172 15.4515 127.274 15.2021 127.482 15.0377C127.623 14.9243 127.794 14.8695 127.964 14.8695C128.221 14.8695 128.476 14.998 128.625 15.238C128.818 15.5459 128.767 15.9579 128.504 16.2092C128.351 16.3565 128.158 16.4264 127.965 16.4264C127.888 16.4264 127.811 16.4151 127.735 16.3924C127.722 16.3868 127.708 16.3849 127.695 16.3849C127.669 16.3849 127.642 16.3943 127.622 16.4113L127.593 16.4321C127.542 16.4718 127.533 16.5455 127.571 16.5984C127.941 17.1274 128.26 17.7037 128.521 18.3197C128.595 18.4954 128.763 18.6031 128.944 18.6031C128.991 18.6031 129.039 18.5956 129.086 18.5804L130.325 18.1704C130.467 18.1232 130.58 18.0098 130.618 17.8643C130.715 17.5072 130.992 17.2068 131.382 17.1048C131.469 17.0821 131.557 17.0708 131.644 17.0708C132.079 17.0708 132.489 17.341 132.648 17.7604C132.863 18.331 132.559 18.9621 131.984 19.1511C131.873 19.187 131.761 19.2059 131.65 19.2059C131.406 19.2059 131.172 19.1208 130.985 18.9716C130.907 18.9092 130.811 18.879 130.713 18.879C130.664 18.879 130.614 18.8865 130.567 18.9017L129.32 19.3136C129.095 19.3891 128.967 19.6234 129.02 19.8558C129.237 20.7798 129.307 21.7094 129.243 22.6201C129.239 22.6806 129.282 22.7335 129.343 22.7392L129.394 22.7449C129.4 22.7467 129.403 22.7467 129.409 22.7467C129.441 22.7467 129.473 22.7335 129.496 22.709C129.64 22.5408 129.853 22.4369 130.085 22.4369C130.116 22.4369 130.146 22.4388 130.176 22.4425C130.631 22.4954 130.949 22.9319 130.843 23.3929C130.762 23.7406 130.443 23.9938 130.087 23.9938C130.082 23.9938 130.076 23.9938 130.072 23.9938C129.77 23.9862 129.519 23.8124 129.394 23.5687C129.379 23.5403 129.339 23.5158 129.307 23.512L129.247 23.5044C129.243 23.5044 129.239 23.5044 129.233 23.5044C129.18 23.5044 129.133 23.5422 129.124 23.597C129.001 24.2829 128.806 24.948 128.54 25.5847C128.47 25.7529 128.54 25.9475 128.702 26.0288L130.025 26.6939C130.074 26.7184 130.127 26.7298 130.178 26.7298C130.244 26.7298 130.31 26.7109 130.369 26.675C130.537 26.571 130.734 26.5144 130.934 26.5144C131.094 26.5144 131.257 26.5503 131.41 26.6277C131.95 26.8998 132.16 27.5668 131.863 28.0996C131.673 28.4454 131.302 28.6476 130.924 28.6476C130.786 28.6476 130.648 28.6211 130.516 28.5644C130.133 28.4019 129.9 28.0486 129.868 27.6688C129.859 27.546 129.789 27.4383 129.679 27.3816L129.469 27.2777L128.759 26.9206L128.351 26.7146C128.302 26.6901 128.247 26.6769 128.196 26.6769C128.077 26.6769 127.964 26.7373 127.897 26.845C127.822 26.9716 127.741 27.0963 127.659 27.2191C127.202 27.8956 126.656 28.5153 126.031 29.0576C125.995 29.0878 125.991 29.1407 126.019 29.1785L126.097 29.2749C126.114 29.2957 126.138 29.307 126.165 29.307C126.169 29.307 126.17 29.307 126.174 29.307C126.197 29.3051 126.22 29.3051 126.242 29.3051C126.473 29.3051 126.7 29.4053 126.853 29.5999C127.138 29.9589 127.053 30.4936 126.652 30.743C126.528 30.8224 126.386 30.8602 126.244 30.8602C126.038 30.8602 125.832 30.7789 125.683 30.6221C125.471 30.4029 125.417 30.0987 125.505 29.8361C125.515 29.8077 125.509 29.7775 125.49 29.7529L125.413 29.6528C125.396 29.632 125.369 29.6207 125.345 29.6207C125.326 29.6207 125.309 29.6244 125.294 29.6358C124.7 30.0533 124.05 30.4067 123.351 30.6844C123.246 30.726 123.191 30.8394 123.227 30.9471L123.765 32.5739C123.79 32.6495 123.854 32.7024 123.933 32.7175C124.018 32.7307 124.103 32.7572 124.183 32.7912C124.449 32.9083 124.668 33.1332 124.767 33.4317C124.957 34.008 124.631 34.6297 124.039 34.7959C123.954 34.8205 123.865 34.8318 123.778 34.8318Z" fill="#D7B6FF"/>
</g>
<path fill-rule="evenodd" clip-rule="evenodd" d="M119.723 3.66797C109.6 3.66797 101.383 11.8843 101.383 22.008C101.383 32.1316 109.6 40.3479 119.723 40.3479C129.847 40.3479 138.063 32.1316 138.063 22.008C138.063 11.8843 129.847 3.66797 119.723 3.66797ZM105.051 22.008C105.051 13.9017 111.617 7.33599 119.723 7.33599C123.116 7.33599 126.234 8.49141 128.71 10.4354L108.151 30.9946C106.207 28.5187 105.051 25.4009 105.051 22.008ZM110.737 33.5805C113.213 35.5245 116.331 36.68 119.723 36.68C127.83 36.68 134.395 30.1143 134.395 22.008C134.395 18.6151 133.24 15.4973 131.296 13.0214L110.737 33.5805Z" fill="white"/>
<defs>
<clipPath id="clip0">
<rect x="107.069" y="9.18408" width="25.6477" height="25.6477" fill="white"/>
</clipPath>
</defs>
</svg>
