<svg width="42" height="42" viewBox="0 0 42 42" fill="none" xmlns="http://www.w3.org/2000/svg">
<path d="M21 3.57C11.375 3.57 3.5 11.4275 3.5 21.105C3.5 29.855 9.905 37.1175 18.27 38.43V26.18H13.825V21.105H18.27V17.2375C18.27 12.845 20.8775 10.43 24.885 10.43C26.7925 10.43 28.7875 10.7625 28.7875 10.7625V15.085H26.5825C24.4125 15.085 23.73 16.4325 23.73 17.815V21.105H28.595L27.8075 26.18H23.73V38.43C27.8538 37.7787 31.6089 35.6747 34.3174 32.4976C37.0259 29.3206 38.5094 25.2799 38.5 21.105C38.5 11.4275 30.625 3.57 21 3.57Z" fill="#8566AA"/>
</svg>
