<svg width="42" height="42" viewBox="0 0 42 42" fill="none" xmlns="http://www.w3.org/2000/svg">
<path d="M13.65 3.42708H28.35C33.95 3.42708 38.5 7.88229 38.5 13.3656V27.7594C38.5 30.3952 37.4306 32.9232 35.5271 34.787C33.6236 36.6508 31.0419 37.6979 28.35 37.6979H13.65C8.05 37.6979 3.5 33.2427 3.5 27.7594V13.3656C3.5 10.7298 4.56937 8.20185 6.47287 6.33801C8.37636 4.47418 10.9581 3.42708 13.65 3.42708V3.42708ZM13.3 6.85417C11.6291 6.85417 10.0267 7.50409 8.84523 8.66095C7.66375 9.81782 7 11.3869 7 13.0229V28.1021C7 31.512 9.8175 34.2708 13.3 34.2708H28.7C30.3709 34.2708 31.9733 33.6209 33.1548 32.4641C34.3363 31.3072 35 29.7381 35 28.1021V13.0229C35 9.61297 32.1825 6.85417 28.7 6.85417H13.3ZM30.1875 9.42448C30.7677 9.42448 31.3241 9.65015 31.7343 10.0518C32.1445 10.4535 32.375 10.9983 32.375 11.5664C32.375 12.1345 32.1445 12.6793 31.7343 13.081C31.3241 13.4827 30.7677 13.7083 30.1875 13.7083C29.6073 13.7083 29.0509 13.4827 28.6407 13.081C28.2305 12.6793 28 12.1345 28 11.5664C28 10.9983 28.2305 10.4535 28.6407 10.0518C29.0509 9.65015 29.6073 9.42448 30.1875 9.42448ZM21 11.9948C23.3206 11.9948 25.5462 12.8975 27.1872 14.5042C28.8281 16.111 29.75 18.2902 29.75 20.5625C29.75 22.8348 28.8281 25.014 27.1872 26.6208C25.5462 28.2275 23.3206 29.1302 21 29.1302C18.6794 29.1302 16.4538 28.2275 14.8128 26.6208C13.1719 25.014 12.25 22.8348 12.25 20.5625C12.25 18.2902 13.1719 16.111 14.8128 14.5042C16.4538 12.8975 18.6794 11.9948 21 11.9948V11.9948ZM21 15.4219C19.6076 15.4219 18.2723 15.9635 17.2877 16.9275C16.3031 17.8916 15.75 19.1991 15.75 20.5625C15.75 21.9259 16.3031 23.2334 17.2877 24.1975C18.2723 25.1615 19.6076 25.7031 21 25.7031C22.3924 25.7031 23.7277 25.1615 24.7123 24.1975C25.6969 23.2334 26.25 21.9259 26.25 20.5625C26.25 19.1991 25.6969 17.8916 24.7123 16.9275C23.7277 15.9635 22.3924 15.4219 21 15.4219Z" fill="#8566AA"/>
</svg>
