<svg width="86" height="86" viewBox="0 0 86 86" fill="none" xmlns="http://www.w3.org/2000/svg">
<circle cx="43" cy="43" r="43" fill="#8EC6C5"/>
<path d="M43 23C44.5913 23 46.1174 23.6321 47.2426 24.7574C48.3679 25.8826 49 27.4087 49 29V41C49 42.5913 48.3679 44.1174 47.2426 45.2426C46.1174 46.3679 44.5913 47 43 47C41.4087 47 39.8826 46.3679 38.7574 45.2426C37.6321 44.1174 37 42.5913 37 41V29C37 27.4087 37.6321 25.8826 38.7574 24.7574C39.8826 23.6321 41.4087 23 43 23ZM57 41C57 48.06 51.78 53.88 45 54.86V61H41V54.86C34.22 53.88 29 48.06 29 41H33C33 43.6522 34.0536 46.1957 35.9289 48.0711C37.8043 49.9464 40.3478 51 43 51C45.6522 51 48.1957 49.9464 50.0711 48.0711C51.9464 46.1957 53 43.6522 53 41H57Z" fill="black"/>
</svg>
