<svg width="42" height="42" viewBox="0 0 42 42" fill="none" xmlns="http://www.w3.org/2000/svg">
<path d="M38.4862 10.5C37.1668 11.1125 35.7445 11.515 34.2709 11.7075C35.7788 10.78 36.944 9.31 37.4924 7.5425C36.0701 8.4175 34.4937 9.03 32.8315 9.38C31.4778 7.875 29.5758 7 27.4167 7C23.3899 7 20.0999 10.36 20.0999 14.5075C20.0999 15.1025 20.1684 15.68 20.2884 16.2225C14.1882 15.9075 8.75626 12.915 5.14069 8.3825C4.50668 9.485 4.14683 10.78 4.14683 12.145C4.14683 14.7525 5.43199 17.0625 7.4197 18.375C6.20308 18.375 5.07215 18.025 4.07829 17.5C4.07829 17.5 4.07829 17.5 4.07829 17.5525C4.07829 21.1925 6.61433 24.2375 9.97288 24.92C9.356 25.095 8.70485 25.1825 8.03657 25.1825C7.57392 25.1825 7.11126 25.13 6.66574 25.0425C7.59105 28 10.2813 30.205 13.5199 30.2575C11.0181 32.2875 7.84808 33.4775 4.38673 33.4775C3.80412 33.4775 3.22152 33.4425 2.63892 33.3725C5.89465 35.5075 9.76725 36.75 13.914 36.75C27.4167 36.75 34.8364 25.305 34.8364 15.3825C34.8364 15.05 34.8364 14.735 34.8192 14.4025C36.2586 13.3525 37.4924 12.0225 38.4862 10.5Z" fill="#8566AA"/>
</svg>
