<svg width="86" height="86" viewBox="0 0 86 86" fill="none" xmlns="http://www.w3.org/2000/svg">
<circle cx="43" cy="43" r="43" fill="#6983AA"/>
<path d="M38.2 50.2857L50.656 43L38.2 35.7143V50.2857ZM65.944 31.27C66.256 32.4114 66.472 33.9414 66.616 35.8843C66.784 37.8271 66.856 39.5029 66.856 40.96L67 43C67 48.3186 66.616 52.2286 65.944 54.73C65.344 56.9157 63.952 58.3243 61.792 58.9314C60.664 59.2471 58.6 59.4657 55.432 59.6114C52.312 59.7814 49.456 59.8543 46.816 59.8543L43 60C32.944 60 26.68 59.6114 24.208 58.9314C22.048 58.3243 20.656 56.9157 20.056 54.73C19.744 53.5886 19.528 52.0586 19.384 50.1157C19.216 48.1729 19.144 46.4971 19.144 45.04L19 43C19 37.6814 19.384 33.7714 20.056 31.27C20.656 29.0843 22.048 27.6757 24.208 27.0686C25.336 26.7529 27.4 26.5343 30.568 26.3886C33.688 26.2186 36.544 26.1457 39.184 26.1457L43 26C53.056 26 59.32 26.3886 61.792 27.0686C63.952 27.6757 65.344 29.0843 65.944 31.27Z" fill="white"/>
</svg>
